<?xml version="1.0" encoding="utf-8"?>
<!-- Generator: Adobe Illustrator 16.0.0, SVG Export Plug-In . SVG Version: 6.00 Build 0)  -->
<!DOCTYPE svg PUBLIC "-//W3C//DTD SVG 1.1//EN" "http://www.w3.org/Graphics/SVG/1.1/DTD/svg11.dtd">
<svg version="1.1" id="Layer_1" xmlns="http://www.w3.org/2000/svg" xmlns:xlink="http://www.w3.org/1999/xlink" x="0px" y="0px"
	 width="185.739px" height="29.024px" viewBox="0 0 185.739 29.024" enable-background="new 0 0 185.739 29.024"
	 xml:space="preserve">
<path fill-rule="evenodd" clip-rule="evenodd" fill="#20479E" d="M185.74,8.254c-6.572-3.617-18.997-5.555-31.744-5.778
	c-14.918-0.261-28.816,0.817-43.719,1.417c-4.488,0.181-47.877,3.536-47.853,2.149c-3.008-1.331-7.352-6.547-24.684-4.978
	C31.206,1.656,7.293,4.438,3.671,14.5c-1.044,2.902-0.244,6.557,1.355,8.997c1.501,2.292,3.01,3.542,8.056,5.452
	c-5.238-1.983-6.532-2.374-8.594-5.228c-1.864-2.58-2.642-6.642-1.492-9.494C7.051,4.162,31.266,0.847,37.754,0.259
	C55.085-1.31,59.416,4.711,62.424,6.042c-0.024,1.387,43.376-2.64,47.865-2.82c14.902-0.6,28.799-1.544,43.716-1.283
	C166.752,2.162,179.167,4.637,185.74,8.254L185.74,8.254L185.74,8.254z"/>
<path fill-rule="evenodd" clip-rule="evenodd" fill="#0098D7" d="M151.692,1.299c-26.06-0.758-51.579,2.096-77.58,3.449
	l-0.469-0.204c26.073-1.742,52.284-4.582,78.456-3.767C151.957,0.952,151.814,1.12,151.692,1.299L151.692,1.299z"/>
<g>
	<path fill="#1E2626" d="M15.785,13.48h-4.022v-1.163h9.792v1.163h-4.042v9.43h-1.727V13.48z"/>
	<path fill="#1E2626" d="M31.688,19.044c0,2.813-2.433,4.039-4.729,4.039c-2.571,0-4.553-1.509-4.553-3.914
		c0-2.546,2.08-4.039,4.709-4.039C29.843,15.131,31.688,16.718,31.688,19.044z M24.152,19.123c0,1.666,1.197,2.923,2.884,2.923
		c1.648,0,2.885-1.242,2.885-2.955c0-1.289-0.805-2.923-2.845-2.923C25.035,16.168,24.152,17.677,24.152,19.123z"/>
	<path fill="#1E2626" d="M35.383,17.787c0-0.975-0.04-1.76-0.079-2.483h1.55l0.079,1.305h0.039c0.707-0.927,1.825-1.478,3.375-1.478
		c2.296,0,4.023,1.556,4.023,3.866c0,2.735-2.08,4.086-4.317,4.086c-1.256,0-2.354-0.44-2.924-1.194H37.09v4.133h-1.707V17.787z
		 M37.09,19.814c0,0.204,0.039,0.393,0.079,0.566c0.314,0.958,1.354,1.619,2.59,1.619c1.825,0,2.885-1.194,2.885-2.939
		c0-1.524-1.001-2.829-2.826-2.829c-1.177,0-2.276,0.676-2.61,1.713c-0.059,0.173-0.118,0.377-0.118,0.565V19.814z"/>
	<path fill="#1E2626" d="M48.125,12.459c1.04-0.125,2.276-0.22,3.63-0.22c2.453,0,4.199,0.456,5.357,1.32
		c1.177,0.865,1.864,2.09,1.864,3.804c0,1.729-0.667,3.143-1.903,4.118c-1.236,0.99-3.277,1.524-5.848,1.524
		c-1.217,0-2.237-0.047-3.101-0.125V12.459z M49.833,21.826c0.432,0.063,1.06,0.079,1.727,0.079c3.65,0,5.632-1.634,5.632-4.495
		c0.02-2.499-1.747-4.086-5.357-4.086c-0.883,0-1.55,0.063-2.001,0.141V21.826z"/>
	<path fill="#1E2626" d="M71.325,19.044c0,2.813-2.433,4.039-4.729,4.039c-2.571,0-4.553-1.509-4.553-3.914
		c0-2.546,2.08-4.039,4.709-4.039C69.48,15.131,71.325,16.718,71.325,19.044z M63.79,19.123c0,1.666,1.197,2.923,2.884,2.923
		c1.648,0,2.885-1.242,2.885-2.955c0-1.289-0.805-2.923-2.845-2.923C64.673,16.168,63.79,17.677,63.79,19.123z"/>
	<path fill="#1E2626" d="M75.571,15.304l1.256,3.866c0.275,0.849,0.53,1.635,0.707,2.42h0.059c0.216-0.77,0.53-1.587,0.844-2.404
		l1.55-3.882h1.452l1.472,3.804c0.354,0.911,0.628,1.713,0.844,2.483h0.059c0.157-0.77,0.412-1.572,0.726-2.467l1.354-3.819H87.6
		l-3.061,7.607h-1.57l-1.452-3.63c-0.333-0.849-0.608-1.603-0.844-2.499h-0.039c-0.236,0.912-0.53,1.697-0.864,2.515l-1.53,3.615
		h-1.57l-2.865-7.607H75.571z"/>
	<path fill="#1E2626" d="M90.844,17.363c0-0.786-0.02-1.43-0.079-2.059h1.531l0.098,1.257h0.04c0.471-0.723,1.57-1.43,3.14-1.43
		c1.314,0,3.355,0.629,3.355,3.238v4.542h-1.727v-4.385c0-1.226-0.569-2.248-2.198-2.248c-1.138,0-2.021,0.645-2.315,1.415
		c-0.078,0.173-0.118,0.409-0.118,0.644v4.574h-1.727V17.363z"/>
	<path fill="#0098D7" d="M106.019,12.318h1.707v7.088c0,2.813-1.727,3.678-4.003,3.678c-0.628,0-1.393-0.11-1.825-0.251l0.255-1.116
		c0.354,0.11,0.863,0.204,1.433,0.204c1.531,0,2.433-0.55,2.433-2.625V12.318z"/>
	<path fill="#0098D7" d="M120.626,19.044c0,2.813-2.433,4.039-4.729,4.039c-2.571,0-4.553-1.509-4.553-3.914
		c0-2.546,2.08-4.039,4.709-4.039C118.781,15.131,120.626,16.718,120.626,19.044z M113.091,19.123c0,1.666,1.197,2.923,2.884,2.923
		c1.648,0,2.885-1.242,2.885-2.955c0-1.289-0.805-2.923-2.845-2.923C113.974,16.168,113.091,17.677,113.091,19.123z"/>
	<path fill="#0098D7" d="M124.322,11.752h1.727v4.746h0.04c0.274-0.393,0.706-0.738,1.236-0.974c0.51-0.236,1.119-0.393,1.766-0.393
		c1.275,0,3.316,0.629,3.316,3.253v4.526h-1.727v-4.369c0-1.226-0.569-2.263-2.198-2.263c-1.118,0-2.001,0.628-2.315,1.383
		c-0.098,0.189-0.118,0.393-0.118,0.66v4.589h-1.727V11.752z"/>
	<path fill="#0098D7" d="M136.73,17.363c0-0.786-0.02-1.43-0.079-2.059h1.531l0.098,1.257h0.04c0.471-0.723,1.57-1.43,3.14-1.43
		c1.314,0,3.355,0.629,3.355,3.238v4.542h-1.727v-4.385c0-1.226-0.569-2.248-2.198-2.248c-1.138,0-2.021,0.645-2.315,1.415
		c-0.078,0.173-0.118,0.409-0.118,0.644v4.574h-1.727V17.363z"/>
	<path fill="#0098D7" d="M149.139,17.363c0-0.786-0.02-1.43-0.079-2.059h1.531l0.098,1.257h0.04c0.471-0.723,1.57-1.43,3.14-1.43
		c1.314,0,3.355,0.629,3.355,3.238v4.542h-1.727v-4.385c0-1.226-0.569-2.248-2.198-2.248c-1.138,0-2.021,0.645-2.315,1.415
		c-0.078,0.173-0.118,0.409-0.118,0.644v4.574h-1.727V17.363z"/>
	<path fill="#0098D7" d="M161.92,15.304l2.08,4.495c0.216,0.503,0.451,1.1,0.608,1.556h0.04c0.176-0.456,0.373-1.037,0.608-1.587
		l1.884-4.464h1.825l-2.59,5.422c-1.236,2.609-2.08,3.945-3.257,4.762c-0.844,0.597-1.688,0.833-2.119,0.896l-0.432-1.163
		c0.432-0.11,1-0.33,1.511-0.676c0.471-0.298,1.06-0.833,1.452-1.54c0.079-0.142,0.137-0.251,0.137-0.33s-0.039-0.188-0.118-0.361
		l-3.512-7.01H161.92z"/>
</g>
<path fill-rule="evenodd" clip-rule="evenodd" fill="#0098D9" d="M1.214,14.575c-1.044,2.902-0.244,6.557,1.355,8.997
	c1.501,2.292,3.01,3.542,8.057,5.452c-5.239-1.982-6.532-2.374-8.594-5.228c-1.865-2.58-2.642-6.642-1.493-9.494
	c1.538-3.817,5.978-6.361,11.248-8.456h0C6.742,7.838,2.565,10.821,1.214,14.575L1.214,14.575z"/>
<g>
</g>
<g>
</g>
<g>
</g>
<g>
</g>
<g>
</g>
<g>
</g>
</svg>
